<mxfile host="app.diagrams.net" modified="2023-09-19T17:22:50.104Z" agent="Mozilla/5.0 (Macintosh; Intel Mac OS X 10_15_7) AppleWebKit/605.1.15 (KHTML, like Gecko) Version/16.6 Safari/605.1.15" etag="Fyjxz1--I3WpOBOTptCl" version="21.7.5" type="device">
  <diagram name="Страница — 1" id="WV6eDjpzGGe2Dc1X_0Ls">
    <mxGraphModel dx="930" dy="1514" grid="1" gridSize="10" guides="1" tooltips="1" connect="1" arrows="1" fold="1" page="1" pageScale="1" pageWidth="827" pageHeight="1169" math="0" shadow="0">
      <root>
        <mxCell id="0" />
        <mxCell id="1" parent="0" />
        <mxCell id="dPnIjC1kc_EvW6korK3I-1" value="Customer" style="swimlane;whiteSpace=wrap;html=1;" vertex="1" parent="1">
          <mxGeometry x="80" y="440" width="200" height="200" as="geometry" />
        </mxCell>
        <mxCell id="dPnIjC1kc_EvW6korK3I-6" value="ID (PK)" style="text;html=1;strokeColor=none;fillColor=none;align=center;verticalAlign=middle;whiteSpace=wrap;rounded=0;" vertex="1" parent="dPnIjC1kc_EvW6korK3I-1">
          <mxGeometry x="70" y="40" width="60" height="30" as="geometry" />
        </mxCell>
        <mxCell id="dPnIjC1kc_EvW6korK3I-17" value="Name" style="text;html=1;strokeColor=none;fillColor=none;align=center;verticalAlign=middle;whiteSpace=wrap;rounded=0;" vertex="1" parent="dPnIjC1kc_EvW6korK3I-1">
          <mxGeometry x="70" y="85" width="60" height="30" as="geometry" />
        </mxCell>
        <mxCell id="dPnIjC1kc_EvW6korK3I-18" value="Phone_Number" style="text;html=1;strokeColor=none;fillColor=none;align=center;verticalAlign=middle;whiteSpace=wrap;rounded=0;" vertex="1" parent="dPnIjC1kc_EvW6korK3I-1">
          <mxGeometry x="55" y="120" width="90" height="30" as="geometry" />
        </mxCell>
        <mxCell id="dPnIjC1kc_EvW6korK3I-20" value="email" style="text;html=1;strokeColor=none;fillColor=none;align=center;verticalAlign=middle;whiteSpace=wrap;rounded=0;" vertex="1" parent="dPnIjC1kc_EvW6korK3I-1">
          <mxGeometry x="55" y="160" width="90" height="30" as="geometry" />
        </mxCell>
        <mxCell id="dPnIjC1kc_EvW6korK3I-21" value="" style="endArrow=none;html=1;rounded=0;" edge="1" parent="dPnIjC1kc_EvW6korK3I-1">
          <mxGeometry width="50" height="50" relative="1" as="geometry">
            <mxPoint y="79" as="sourcePoint" />
            <mxPoint x="200" y="80" as="targetPoint" />
          </mxGeometry>
        </mxCell>
        <mxCell id="dPnIjC1kc_EvW6korK3I-2" value="Order" style="swimlane;whiteSpace=wrap;html=1;" vertex="1" parent="1">
          <mxGeometry x="340" y="440" width="200" height="200" as="geometry" />
        </mxCell>
        <mxCell id="dPnIjC1kc_EvW6korK3I-7" value="ID (PK)" style="text;html=1;strokeColor=none;fillColor=none;align=center;verticalAlign=middle;whiteSpace=wrap;rounded=0;" vertex="1" parent="dPnIjC1kc_EvW6korK3I-2">
          <mxGeometry x="70" y="40" width="60" height="30" as="geometry" />
        </mxCell>
        <mxCell id="dPnIjC1kc_EvW6korK3I-13" value="Table_Number" style="text;html=1;strokeColor=none;fillColor=none;align=center;verticalAlign=middle;whiteSpace=wrap;rounded=0;" vertex="1" parent="dPnIjC1kc_EvW6korK3I-2">
          <mxGeometry x="70" y="85" width="60" height="30" as="geometry" />
        </mxCell>
        <mxCell id="dPnIjC1kc_EvW6korK3I-14" value="Status" style="text;html=1;strokeColor=none;fillColor=none;align=center;verticalAlign=middle;whiteSpace=wrap;rounded=0;" vertex="1" parent="dPnIjC1kc_EvW6korK3I-2">
          <mxGeometry x="70" y="120" width="60" height="30" as="geometry" />
        </mxCell>
        <mxCell id="dPnIjC1kc_EvW6korK3I-19" value="Date_Time" style="text;html=1;strokeColor=none;fillColor=none;align=center;verticalAlign=middle;whiteSpace=wrap;rounded=0;" vertex="1" parent="dPnIjC1kc_EvW6korK3I-2">
          <mxGeometry x="70" y="160" width="60" height="30" as="geometry" />
        </mxCell>
        <mxCell id="dPnIjC1kc_EvW6korK3I-22" value="" style="endArrow=none;html=1;rounded=0;" edge="1" parent="dPnIjC1kc_EvW6korK3I-2">
          <mxGeometry width="50" height="50" relative="1" as="geometry">
            <mxPoint y="80" as="sourcePoint" />
            <mxPoint x="200" y="81" as="targetPoint" />
          </mxGeometry>
        </mxCell>
        <mxCell id="dPnIjC1kc_EvW6korK3I-3" value="Tables" style="swimlane;whiteSpace=wrap;html=1;" vertex="1" parent="1">
          <mxGeometry x="600" y="440" width="200" height="200" as="geometry" />
        </mxCell>
        <mxCell id="dPnIjC1kc_EvW6korK3I-9" value="User ID (PK)" style="text;html=1;strokeColor=none;fillColor=none;align=center;verticalAlign=middle;whiteSpace=wrap;rounded=0;" vertex="1" parent="dPnIjC1kc_EvW6korK3I-3">
          <mxGeometry x="60" y="60" width="80" height="30" as="geometry" />
        </mxCell>
        <mxCell id="dPnIjC1kc_EvW6korK3I-10" value="Table &amp;nbsp;ID (PK)" style="text;html=1;strokeColor=none;fillColor=none;align=center;verticalAlign=middle;whiteSpace=wrap;rounded=0;" vertex="1" parent="dPnIjC1kc_EvW6korK3I-3">
          <mxGeometry x="52.5" y="100" width="95" height="30" as="geometry" />
        </mxCell>
        <mxCell id="dPnIjC1kc_EvW6korK3I-11" value="Time" style="text;html=1;strokeColor=none;fillColor=none;align=center;verticalAlign=middle;whiteSpace=wrap;rounded=0;" vertex="1" parent="dPnIjC1kc_EvW6korK3I-3">
          <mxGeometry x="52.5" y="130" width="95" height="30" as="geometry" />
        </mxCell>
        <mxCell id="dPnIjC1kc_EvW6korK3I-12" value="Number_of_Persons" style="text;html=1;strokeColor=none;fillColor=none;align=center;verticalAlign=middle;whiteSpace=wrap;rounded=0;" vertex="1" parent="dPnIjC1kc_EvW6korK3I-3">
          <mxGeometry x="52.5" y="160" width="95" height="30" as="geometry" />
        </mxCell>
        <mxCell id="dPnIjC1kc_EvW6korK3I-23" value="" style="endArrow=none;html=1;rounded=0;" edge="1" parent="dPnIjC1kc_EvW6korK3I-3">
          <mxGeometry width="50" height="50" relative="1" as="geometry">
            <mxPoint y="60" as="sourcePoint" />
            <mxPoint x="200" y="61" as="targetPoint" />
          </mxGeometry>
        </mxCell>
        <mxCell id="dPnIjC1kc_EvW6korK3I-24" value="" style="endArrow=none;html=1;rounded=0;" edge="1" parent="dPnIjC1kc_EvW6korK3I-3">
          <mxGeometry width="50" height="50" relative="1" as="geometry">
            <mxPoint y="100" as="sourcePoint" />
            <mxPoint x="200" y="101" as="targetPoint" />
          </mxGeometry>
        </mxCell>
        <mxCell id="dPnIjC1kc_EvW6korK3I-25" value="" style="endArrow=none;html=1;rounded=0;" edge="1" parent="dPnIjC1kc_EvW6korK3I-3">
          <mxGeometry width="50" height="50" relative="1" as="geometry">
            <mxPoint y="130" as="sourcePoint" />
            <mxPoint x="200" y="131" as="targetPoint" />
          </mxGeometry>
        </mxCell>
        <mxCell id="dPnIjC1kc_EvW6korK3I-28" value="ID (PK)" style="text;html=1;strokeColor=none;fillColor=none;align=center;verticalAlign=middle;whiteSpace=wrap;rounded=0;" vertex="1" parent="dPnIjC1kc_EvW6korK3I-3">
          <mxGeometry x="70" y="30" width="60" height="30" as="geometry" />
        </mxCell>
        <mxCell id="dPnIjC1kc_EvW6korK3I-31" value="" style="endArrow=classic;html=1;rounded=0;" edge="1" parent="dPnIjC1kc_EvW6korK3I-3">
          <mxGeometry width="50" height="50" relative="1" as="geometry">
            <mxPoint x="200" y="40" as="sourcePoint" />
            <mxPoint x="200" y="290" as="targetPoint" />
            <Array as="points">
              <mxPoint x="220" y="40" />
              <mxPoint x="220" y="170" />
              <mxPoint x="220" y="290" />
            </Array>
          </mxGeometry>
        </mxCell>
        <mxCell id="dPnIjC1kc_EvW6korK3I-4" value="Restaurant Halls" style="swimlane;whiteSpace=wrap;html=1;" vertex="1" parent="1">
          <mxGeometry x="600" y="680" width="200" height="120" as="geometry" />
        </mxCell>
        <mxCell id="dPnIjC1kc_EvW6korK3I-26" value="Halls_Number" style="text;html=1;strokeColor=none;fillColor=none;align=center;verticalAlign=middle;whiteSpace=wrap;rounded=0;" vertex="1" parent="dPnIjC1kc_EvW6korK3I-4">
          <mxGeometry x="70" y="80" width="60" height="30" as="geometry" />
        </mxCell>
        <mxCell id="dPnIjC1kc_EvW6korK3I-8" value="ID (PK)" style="text;html=1;strokeColor=none;fillColor=none;align=center;verticalAlign=middle;whiteSpace=wrap;rounded=0;" vertex="1" parent="dPnIjC1kc_EvW6korK3I-4">
          <mxGeometry x="70" y="40" width="60" height="30" as="geometry" />
        </mxCell>
        <mxCell id="dPnIjC1kc_EvW6korK3I-27" value="" style="endArrow=none;html=1;rounded=0;" edge="1" parent="dPnIjC1kc_EvW6korK3I-4">
          <mxGeometry width="50" height="50" relative="1" as="geometry">
            <mxPoint y="70" as="sourcePoint" />
            <mxPoint x="200" y="71" as="targetPoint" />
          </mxGeometry>
        </mxCell>
        <mxCell id="dPnIjC1kc_EvW6korK3I-29" value="" style="endArrow=classic;html=1;rounded=0;exitX=1;exitY=0.25;exitDx=0;exitDy=0;entryX=0;entryY=0.25;entryDx=0;entryDy=0;" edge="1" parent="1" source="dPnIjC1kc_EvW6korK3I-1" target="dPnIjC1kc_EvW6korK3I-2">
          <mxGeometry width="50" height="50" relative="1" as="geometry">
            <mxPoint x="430" y="790" as="sourcePoint" />
            <mxPoint x="480" y="740" as="targetPoint" />
          </mxGeometry>
        </mxCell>
        <mxCell id="dPnIjC1kc_EvW6korK3I-30" value="" style="endArrow=classic;html=1;rounded=0;exitX=1;exitY=0.25;exitDx=0;exitDy=0;" edge="1" parent="1">
          <mxGeometry width="50" height="50" relative="1" as="geometry">
            <mxPoint x="540" y="490" as="sourcePoint" />
            <mxPoint x="600" y="520" as="targetPoint" />
            <Array as="points">
              <mxPoint x="570" y="490" />
              <mxPoint x="570" y="520" />
            </Array>
          </mxGeometry>
        </mxCell>
      </root>
    </mxGraphModel>
  </diagram>
</mxfile>
